<svg width="60" height="60" viewBox="0 0 60 60" fill="none" xmlns="http://www.w3.org/2000/svg">
<g clip-path="url(#clip0_103_8)">
<path d="M15 15C15 14.337 15.2634 13.7011 15.7322 13.2322C16.2011 12.7634 16.837 12.5 17.5 12.5H22.5C23.163 12.5 23.7989 12.7634 24.2678 13.2322C24.7366 13.7011 25 14.337 25 15V45C25 45.663 24.7366 46.2989 24.2678 46.7678C23.7989 47.2366 23.163 47.5 22.5 47.5H17.5C16.837 47.5 16.2011 47.2366 15.7322 46.7678C15.2634 46.2989 15 45.663 15 45V15Z" stroke="white" stroke-width="3.25" stroke-linecap="round" stroke-linejoin="round"/>
<path d="M35 15C35 14.337 35.2634 13.7011 35.7322 13.2322C36.2011 12.7634 36.837 12.5 37.5 12.5H42.5C43.163 12.5 43.7989 12.7634 44.2678 13.2322C44.7366 13.7011 45 14.337 45 15V45C45 45.663 44.7366 46.2989 44.2678 46.7678C43.7989 47.2366 43.163 47.5 42.5 47.5H37.5C36.837 47.5 36.2011 47.2366 35.7322 46.7678C35.2634 46.2989 35 45.663 35 45V15Z" stroke="white" stroke-width="3.25" stroke-linecap="round" stroke-linejoin="round"/>
</g>
<defs>
<clipPath id="clip0_103_8">
<rect width="60" height="60" fill="white"/>
</clipPath>
</defs>
</svg>
